<mxfile host="Electron" modified="2024-10-14T20:49:00.703Z" agent="Mozilla/5.0 (Windows NT 10.0; Win64; x64) AppleWebKit/537.36 (KHTML, like Gecko) draw.io/24.1.0 Chrome/120.0.6099.109 Electron/28.1.0 Safari/537.36" etag="nT08aBfFrzO4qsxCciJJ" version="24.1.0" type="device">
  <diagram name="Page-1" id="55ijNNeH4TxK_P1EvQzD">
    <mxGraphModel dx="1069" dy="1841" grid="1" gridSize="10" guides="1" tooltips="1" connect="1" arrows="1" fold="1" page="1" pageScale="1" pageWidth="850" pageHeight="1100" math="0" shadow="0">
      <root>
        <mxCell id="0" />
        <mxCell id="1" parent="0" />
        <mxCell id="OHlSDr-8CtgP3tiL7i1z-2" value="UNIPAL" style="swimlane;whiteSpace=wrap;html=1;" parent="1" vertex="1">
          <mxGeometry x="320" y="100" width="300" height="760" as="geometry" />
        </mxCell>
        <mxCell id="OHlSDr-8CtgP3tiL7i1z-3" value="Login" style="ellipse;whiteSpace=wrap;html=1;" parent="OHlSDr-8CtgP3tiL7i1z-2" vertex="1">
          <mxGeometry x="52.5" y="40" width="127.5" height="70" as="geometry" />
        </mxCell>
        <mxCell id="OHlSDr-8CtgP3tiL7i1z-14" value="View Categories&lt;div&gt;(restaurants, hostels,clinics)&amp;nbsp;&lt;/div&gt;" style="ellipse;whiteSpace=wrap;html=1;" parent="OHlSDr-8CtgP3tiL7i1z-2" vertex="1">
          <mxGeometry x="110" y="150" width="127.5" height="70" as="geometry" />
        </mxCell>
        <mxCell id="OHlSDr-8CtgP3tiL7i1z-15" value="Register" style="ellipse;whiteSpace=wrap;html=1;" parent="OHlSDr-8CtgP3tiL7i1z-2" vertex="1">
          <mxGeometry x="51.25" y="430" width="127.5" height="70" as="geometry" />
        </mxCell>
        <mxCell id="OHlSDr-8CtgP3tiL7i1z-16" value="View list of&amp;nbsp;&lt;div&gt;universities&lt;/div&gt;" style="ellipse;whiteSpace=wrap;html=1;" parent="OHlSDr-8CtgP3tiL7i1z-2" vertex="1">
          <mxGeometry x="160" y="340" width="127.5" height="70" as="geometry" />
        </mxCell>
        <mxCell id="OHlSDr-8CtgP3tiL7i1z-17" value="Categories management&amp;nbsp;" style="ellipse;whiteSpace=wrap;html=1;" parent="OHlSDr-8CtgP3tiL7i1z-2" vertex="1">
          <mxGeometry x="160" y="500" width="127.5" height="70" as="geometry" />
        </mxCell>
        <mxCell id="OHlSDr-8CtgP3tiL7i1z-18" value="View details of items in the categories" style="ellipse;whiteSpace=wrap;html=1;" parent="OHlSDr-8CtgP3tiL7i1z-2" vertex="1">
          <mxGeometry x="51.25" y="260" width="127.5" height="70" as="geometry" />
        </mxCell>
        <mxCell id="QULovlhrzJNb3J-Qt0b8-1" value="&lt;font face=&quot;Tahoma&quot;&gt;Post Blogs and events on the Application&lt;/font&gt;" style="ellipse;whiteSpace=wrap;html=1;hachureGap=4;fontFamily=Architects Daughter;fontSource=https%3A%2F%2Ffonts.googleapis.com%2Fcss%3Ffamily%3DArchitects%2BDaughter;" parent="OHlSDr-8CtgP3tiL7i1z-2" vertex="1">
          <mxGeometry x="20" y="660" width="130" height="70" as="geometry" />
        </mxCell>
        <mxCell id="N92U9ZDtns8RRpIuTuD8-1" value="Add flyers" style="ellipse;whiteSpace=wrap;html=1;" vertex="1" parent="OHlSDr-8CtgP3tiL7i1z-2">
          <mxGeometry x="178.75" y="580" width="111.25" height="70" as="geometry" />
        </mxCell>
        <mxCell id="N92U9ZDtns8RRpIuTuD8-2" value="&amp;lt;&amp;lt;Include&amp;gt;&amp;gt;" style="endArrow=open;endSize=12;dashed=1;html=1;rounded=0;" edge="1" parent="OHlSDr-8CtgP3tiL7i1z-2" target="N92U9ZDtns8RRpIuTuD8-1">
          <mxGeometry width="160" relative="1" as="geometry">
            <mxPoint x="130" y="670" as="sourcePoint" />
            <mxPoint x="290" y="670" as="targetPoint" />
          </mxGeometry>
        </mxCell>
        <mxCell id="OHlSDr-8CtgP3tiL7i1z-4" value="Student" style="shape=umlActor;verticalLabelPosition=bottom;verticalAlign=top;html=1;outlineConnect=0;" parent="1" vertex="1">
          <mxGeometry x="60" y="320" width="40" height="80" as="geometry" />
        </mxCell>
        <mxCell id="OHlSDr-8CtgP3tiL7i1z-19" value="Admin" style="shape=umlActor;verticalLabelPosition=bottom;verticalAlign=top;html=1;outlineConnect=0;" parent="1" vertex="1">
          <mxGeometry x="780" y="260" width="30" height="60" as="geometry" />
        </mxCell>
        <mxCell id="QULovlhrzJNb3J-Qt0b8-2" value="&lt;font face=&quot;Lucida Console&quot;&gt;University&amp;nbsp;&lt;/font&gt;&lt;div&gt;&lt;font face=&quot;kPuyOr9tZ-Fus74RArYJ&quot;&gt;Blogger&lt;/font&gt;&lt;/div&gt;" style="shape=umlActor;verticalLabelPosition=bottom;verticalAlign=top;html=1;outlineConnect=0;hachureGap=4;fontFamily=Architects Daughter;fontSource=https%3A%2F%2Ffonts.googleapis.com%2Fcss%3Ffamily%3DArchitects%2BDaughter;" parent="1" vertex="1">
          <mxGeometry x="70" y="600" width="30" height="60" as="geometry" />
        </mxCell>
        <mxCell id="LP4Pg4Z0m5B7OYynHUsp-1" value="" style="endArrow=classic;html=1;rounded=0;entryX=0;entryY=1;entryDx=0;entryDy=0;" parent="1" target="OHlSDr-8CtgP3tiL7i1z-3" edge="1">
          <mxGeometry width="50" height="50" relative="1" as="geometry">
            <mxPoint x="110" y="630" as="sourcePoint" />
            <mxPoint x="160" y="580" as="targetPoint" />
          </mxGeometry>
        </mxCell>
        <mxCell id="LP4Pg4Z0m5B7OYynHUsp-2" value="" style="endArrow=classic;html=1;rounded=0;entryX=0.023;entryY=0.386;entryDx=0;entryDy=0;entryPerimeter=0;" parent="1" target="QULovlhrzJNb3J-Qt0b8-1" edge="1">
          <mxGeometry width="50" height="50" relative="1" as="geometry">
            <mxPoint x="110" y="630" as="sourcePoint" />
            <mxPoint x="160" y="580" as="targetPoint" />
          </mxGeometry>
        </mxCell>
        <mxCell id="LP4Pg4Z0m5B7OYynHUsp-3" value="" style="endArrow=classic;html=1;rounded=0;" parent="1" target="OHlSDr-8CtgP3tiL7i1z-3" edge="1">
          <mxGeometry width="50" height="50" relative="1" as="geometry">
            <mxPoint x="780" y="300" as="sourcePoint" />
            <mxPoint x="830" y="250" as="targetPoint" />
          </mxGeometry>
        </mxCell>
        <mxCell id="LP4Pg4Z0m5B7OYynHUsp-4" value="" style="endArrow=classic;html=1;rounded=0;" parent="1" target="OHlSDr-8CtgP3tiL7i1z-17" edge="1">
          <mxGeometry width="50" height="50" relative="1" as="geometry">
            <mxPoint x="780" y="300" as="sourcePoint" />
            <mxPoint x="830" y="250" as="targetPoint" />
          </mxGeometry>
        </mxCell>
        <mxCell id="LP4Pg4Z0m5B7OYynHUsp-5" value="" style="endArrow=classic;html=1;rounded=0;entryX=0;entryY=0.5;entryDx=0;entryDy=0;" parent="1" target="OHlSDr-8CtgP3tiL7i1z-3" edge="1">
          <mxGeometry width="50" height="50" relative="1" as="geometry">
            <mxPoint x="100" y="360" as="sourcePoint" />
            <mxPoint x="150" y="310" as="targetPoint" />
          </mxGeometry>
        </mxCell>
        <mxCell id="LP4Pg4Z0m5B7OYynHUsp-6" value="" style="endArrow=classic;html=1;rounded=0;entryX=0.022;entryY=0.686;entryDx=0;entryDy=0;entryPerimeter=0;" parent="1" target="OHlSDr-8CtgP3tiL7i1z-14" edge="1">
          <mxGeometry width="50" height="50" relative="1" as="geometry">
            <mxPoint x="100" y="360" as="sourcePoint" />
            <mxPoint x="150" y="310" as="targetPoint" />
          </mxGeometry>
        </mxCell>
        <mxCell id="LP4Pg4Z0m5B7OYynHUsp-7" value="" style="endArrow=classic;html=1;rounded=0;entryX=0;entryY=0.5;entryDx=0;entryDy=0;" parent="1" target="OHlSDr-8CtgP3tiL7i1z-18" edge="1">
          <mxGeometry width="50" height="50" relative="1" as="geometry">
            <mxPoint x="100" y="360" as="sourcePoint" />
            <mxPoint x="150" y="310" as="targetPoint" />
          </mxGeometry>
        </mxCell>
        <mxCell id="LP4Pg4Z0m5B7OYynHUsp-8" value="" style="endArrow=classic;html=1;rounded=0;entryX=0.02;entryY=0.357;entryDx=0;entryDy=0;entryPerimeter=0;" parent="1" target="OHlSDr-8CtgP3tiL7i1z-15" edge="1">
          <mxGeometry width="50" height="50" relative="1" as="geometry">
            <mxPoint x="100" y="360" as="sourcePoint" />
            <mxPoint x="150" y="310" as="targetPoint" />
          </mxGeometry>
        </mxCell>
        <mxCell id="LP4Pg4Z0m5B7OYynHUsp-11" value="" style="endArrow=classic;html=1;rounded=0;entryX=0.059;entryY=0.714;entryDx=0;entryDy=0;entryPerimeter=0;" parent="1" target="OHlSDr-8CtgP3tiL7i1z-15" edge="1">
          <mxGeometry width="50" height="50" relative="1" as="geometry">
            <mxPoint x="110" y="630" as="sourcePoint" />
            <mxPoint x="160" y="580" as="targetPoint" />
          </mxGeometry>
        </mxCell>
        <mxCell id="LP4Pg4Z0m5B7OYynHUsp-12" value="" style="endArrow=classic;html=1;rounded=0;entryX=0;entryY=0.5;entryDx=0;entryDy=0;" parent="1" target="OHlSDr-8CtgP3tiL7i1z-16" edge="1">
          <mxGeometry width="50" height="50" relative="1" as="geometry">
            <mxPoint x="100" y="360" as="sourcePoint" />
            <mxPoint x="150" y="310" as="targetPoint" />
          </mxGeometry>
        </mxCell>
        <mxCell id="hHJbvhtkehKIKL7x7A-c-1" value="&lt;b&gt;&lt;font style=&quot;font-size: 18px;&quot;&gt;USE CASE DIAGRAM FOR UNIPAL&lt;/font&gt;&lt;/b&gt;" style="text;html=1;align=center;verticalAlign=middle;resizable=0;points=[];autosize=1;strokeColor=none;fillColor=none;" parent="1" vertex="1">
          <mxGeometry x="310" y="-30" width="320" height="40" as="geometry" />
        </mxCell>
      </root>
    </mxGraphModel>
  </diagram>
</mxfile>
